<svg width="400" height="400" xmlns="http://www.w3.org/2000/svg"><defs><filter id="a" x="-.25" y="-.25" width="1.5" height="1.5" color-interpolation-filters="sRGB"><feFlood flood-color="#000" flood-opacity=".4" result="flood"/><feComposite in="flood" in2="SourceGraphic" operator="in" result="composite1"/><feGaussianBlur in="composite1" result="blur" stdDeviation="66.6"/><feOffset result="offset"/><feComposite in="SourceGraphic" in2="offset" result="composite2"/></filter></defs><path d="M550.98 541.91c-.99-28.904-4.377-57.939-9.421-86.393-6.111-34.469-13.889-85.002-43.983-107.46-17.404-12.988-39.941-17.249-59.865-25.081-9.697-3.81-18.384-7.594-26.537-11.901-27.518 30.176-63.4 45.962-105.19 45.964-41.774 0-77.652-15.786-105.17-45.964-8.153 4.308-16.84 8.093-26.537 11.901-19.924 7.832-42.461 12.092-59.863 25.081-30.096 22.463-37.873 72.996-43.983 107.46-5.045 28.454-8.433 57.489-9.422 86.393-.766 22.387 10.288 25.525 29.017 32.284 23.453 8.458 47.666 14.737 72.041 19.884 47.077 9.941 95.603 17.582 143.92 17.924 48.318-.343 96.844-7.983 143.92-17.924 24.375-5.145 48.59-11.424 72.041-19.884 18.736-6.757 29.789-9.895 29.023-32.284zM306 325.99c90.56-.01 123.15-90.68 131.68-165.17C448.19 69.06 404.8 0 306 0c-98.78 0-142.19 69.055-131.68 160.82C182.86 235.304 215.434 326 306 325.99z" filter="url(#a)" transform="matrix(.42446 0 0 .42484 70.12 69)" fill="#fff"/></svg>