<svg width="400" height="400" xmlns="http://www.w3.org/2000/svg"><defs><filter id="a" x="-.25" y="-.25" width="1.5" height="1.5" color-interpolation-filters="sRGB"><feFlood flood-color="#000" flood-opacity=".4" result="flood"/><feComposite in="flood" in2="SourceGraphic" operator="in" result="composite1"/><feGaussianBlur in="composite1" result="blur" stdDeviation="66.6"/><feOffset result="offset"/><feComposite in="SourceGraphic" in2="offset" result="composite2"/></filter></defs><g fill="#fff"><g transform="matrix(.42446 0 0 .42484 129.12 42)" filter="url(#a)"><path d="M27.982.002c-98.778 0-142.188 69.056-131.678 160.823 8.54 74.484 41.112 165.183 131.678 165.173 90.558-.01 123.148-90.682 131.678-165.173C170.17 69.063 126.781.002 27.982.002zm277.996 0C207.2.002 163.79 69.058 174.3 160.825c8.54 74.484 41.113 165.183 131.678 165.173 90.559-.01 123.148-90.682 131.678-165.173C448.166 69.063 404.777.002 305.978.002zM-77.209 311.093c-8.153 4.308-16.84 8.09-26.537 11.898-19.924 7.833-42.463 12.095-59.863 25.084-30.095 22.463-37.871 72.996-43.98 107.46-5.045 28.454-8.435 57.492-9.424 86.395-.766 22.388 10.288 25.523 29.015 32.284 23.453 8.458 47.665 14.737 72.04 19.884 47.075 9.941 95.6 17.583 143.916 17.925 46.64-.33 93.461-7.487 138.998-16.923 45.538 9.437 92.359 16.593 138.999 16.923 48.317-.343 96.841-7.984 143.917-17.925 24.374-5.145 48.593-11.424 72.043-19.884 18.736-6.757 29.786-9.894 29.02-32.284h.01c-.99-28.903-4.38-57.941-9.424-86.395-6.111-34.47-13.886-85.002-43.98-107.46-17.404-12.989-39.94-17.252-59.863-25.084-9.697-3.81-18.384-7.59-26.537-11.898-27.517 30.177-63.398 45.962-105.186 45.965-41.773 0-77.65-15.787-105.17-45.965-8.153 4.308-16.84 8.09-26.537 11.898-2.394.941-4.828 1.826-7.284 2.685-2.456-.859-4.89-1.744-7.284-2.685-9.697-3.81-18.383-7.59-26.537-11.898-27.517 30.177-63.397 45.962-105.186 45.965-41.773 0-77.65-15.787-105.17-45.965z"/></g><g transform="matrix(.42446 0 0 .42484 70.12 102)" filter="url(#a)"><path d="M550.98 541.91c-.99-28.904-4.377-57.939-9.421-86.393-6.111-34.469-13.889-85.002-43.983-107.46-17.404-12.988-39.941-17.249-59.865-25.081-9.697-3.81-18.384-7.594-26.537-11.901-27.518 30.176-63.4 45.962-105.19 45.964-41.774 0-77.652-15.786-105.17-45.964-8.153 4.308-16.84 8.093-26.537 11.901-19.924 7.832-42.461 12.092-59.863 25.081-30.096 22.463-37.873 72.996-43.983 107.46-5.045 28.454-8.433 57.489-9.422 86.393-.766 22.387 10.288 25.525 29.017 32.284 23.453 8.458 47.666 14.737 72.041 19.884 47.077 9.941 95.603 17.582 143.92 17.924 48.318-.343 96.844-7.983 143.92-17.924 24.375-5.145 48.59-11.424 72.041-19.884 18.736-6.757 29.789-9.895 29.023-32.284zM306 325.99c90.56-.01 123.15-90.68 131.68-165.17C448.19 69.06 404.8 0 306 0c-98.78 0-142.19 69.055-131.68 160.82C182.86 235.304 215.434 326 306 325.99z"/></g></g></svg>