<svg width="80" height="80" xmlns="http://www.w3.org/2000/svg">
    <defs>
        <g id="top-logo"><g fill="none" stroke="#fff" stroke-linecap="square" stroke-linejoin="round" stroke-width="6"><path d="M517.23 68.215a35.5 33.2 0 0 1-11.936-26.458 35.5 33.2 0 0 1 14.593-25.266M561.62 16.49a35.5 33.2 0 0 1 14.593 25.266 35.5 33.2 0 0 1-11.936 26.458M551.57 29.079a18.4 19 0 0 1 7.564 14.46 18.4 19 0 0 1-6.187 15.142M528.56 58.681a18.4 19 0 0 1-6.187-15.142 18.4 19 0 0 1 7.564-14.46"/></g><g fill="none"><path d="M540.75 40.25v41.5h-322v-.5h322" stroke="#fff" stroke-width="4.5"/><path d="M13 81.5h58zm76 0h128z" stroke="#ccc" stroke-width="5"/></g><g aria-label="OpenWebRX"><path d="M207.85 45.906c0-11.755-5.104-17.787-14.771-17.787-5.877 0-10.363 2.475-13.688 7.579v-6.574h-6.96v42.301h6.96V47.53c0-8.352 4.717-13.379 12.141-13.379 6.264 0 9.357 4.022 9.357 11.987v25.288h6.96zm-53.515.619h-24.747c.696-7.966 5.645-12.528 13.301-12.528 6.805 0 11.368 4.794 11.445 12.528zm6.96 2.01c0-12.683-7.192-20.416-18.483-20.416-12.605 0-20.725 8.662-20.725 22.581 0 13.301 8.352 21.808 21.963 21.808 5.336 0 10.595-1.082 15.621-3.248v-6.573c-4.872 2.63-9.821 3.944-15.235 3.944-9.203 0-14.461-5.104-15.08-14.693h31.939zm-54.907 1.78c0 10.44-4.64 16.394-11.832 16.394-7.192 0-11.832-5.955-11.832-16.395s4.64-16.395 11.832-16.395c7.192 0 11.832 5.955 11.832 16.395zm-23.664 14.77c2.939 5.027 7.347 7.424 13.533 7.424 10.053 0 17.323-8.661 17.323-22.195S106.31 28.12 96.257 28.12c-6.187 0-10.595 2.397-13.533 7.424v-6.419h-6.96v58.387h6.96zm-44.389-51.04c-15.699 0-26.139 11.291-26.139 29.232 0 18.02 10.44 29.232 26.139 29.232s26.061-11.29 26.061-29.232-10.363-29.232-26.061-29.232zm0 6.187c10.827 0 18.019 8.506 18.019 23.045s-7.192 23.045-18.019 23.045-18.096-8.507-18.096-23.045 7.27-23.045 18.096-23.045z" fill="#ccc"/><path d="m480.99 42.658 18.792-27.608h-15.235l-12.296 18.173-12.373-18.173h-15.157l18.792 27.608-19.565 28.768h15.235l13.069-19.256 13.147 19.256h15.157zm-76.405 7.424h4.099c5.026 0 7.269 2.01 9.898 7.347l6.883 13.997h15.467l-7.888-16.008c-2.939-5.955-5.8-9.358-10.13-10.363 7.268-2.243 10.826-7.038 10.826-14.461 0-10.904-6.883-15.544-21.499-15.544h-22.195v56.376h14.54zm6.11-10.053h-6.11V25.568h6.11c5.954 0 8.506 1.933 8.506 7.192s-2.552 7.27-8.507 7.27zm-62.873-4.485V12.653h-6.96v58.773h6.96v-6.342c2.939 5.027 7.347 7.424 13.533 7.424 10.053 0 17.323-8.66 17.323-22.195s-7.269-22.195-17.323-22.195c-6.186 0-10.595 2.398-13.533 7.424zm23.664 14.77c0 10.44-4.64 16.396-11.832 16.396s-11.832-5.955-11.832-16.395 4.64-16.395 11.832-16.395 11.832 5.954 11.832 16.395zm-48.72-3.789H298.02c.696-7.965 5.646-12.528 13.301-12.528 6.806 0 11.368 4.795 11.445 12.528zm6.96 2.011c0-12.683-7.192-20.416-18.483-20.416-12.605 0-20.725 8.661-20.725 22.581 0 13.301 8.352 21.808 21.963 21.808 5.336 0 10.595-1.083 15.621-3.248v-6.573c-4.872 2.63-9.821 3.944-15.235 3.944-9.202 0-14.46-5.104-15.08-14.693h31.94zm-112.75-33.485 14.152 56.376h9.59l11.987-48.952 11.909 48.952h9.589l14.152-56.376h-7.733L268.79 62.688l-11.832-47.637h-8.584l-11.832 47.637-11.832-47.637z" fill="#fff"/></g></g>
        <g id="panel-log" stroke="#fff"><g fill="none" stroke-linecap="round" stroke-width="3.5"><path d="M21 57h39M21 48.5h39M21 40h34M21 31.5h39M21 23h39"/></g><g fill="#fff" stroke-linejoin="round" stroke-width="2.1"><path d="M13.5 63.5c0 2.5 2.5 5 5 5h45c2.5 0 5-2.5 5-5v-46c0-2.5-2.5-5-5-5H25l-11.5 16z" fill-opacity=".35" style="mix-blend-mode:normal"/><path d="M25 12.5s-1.323 7.847 4 15c-9.294-1.268-15.5 1-15.5 1"/></g></g>
        <g id="panel-status" fill="#fff" stroke="#fff" stroke-linejoin="round" stroke-width="2.1"><g fill-opacity=".35"><path d="M9.683 26.483c-3.13 0-5.666-2.455-5.666-5.483 0-3.029 2.536-5.484 5.666-5.484h48.634c3.13 0 5.666 2.455 5.666 5.484 0 3.028-2.537 5.483-5.666 5.483zM19.113 44.913c-3.13 0-5.666-2.455-5.666-5.483s2.537-5.484 5.666-5.484h48.634c3.13 0 5.666 2.455 5.666 5.484s-2.537 5.483-5.666 5.483zM9.683 63.483c-3.13 0-5.666-2.455-5.666-5.483s2.536-5.484 5.666-5.484h48.634c3.13 0 5.666 2.455 5.666 5.484s-2.537 5.483-5.666 5.483z"/></g><path d="M10.06 26.456c-3.322 0-6.016-2.443-6.016-5.456 0-3.013 2.694-5.456 6.016-5.456h5.932c3.322 0 6.016 2.443 6.016 5.456 0 3.013-2.694 5.456-6.016 5.456zM19.48 44.886c-3.317 0-6.007-2.443-6.007-5.456 0-3.013 2.69-5.456 6.007-5.456h32.516c3.317 0 6.007 2.443 6.007 5.456 0 3.014-2.69 5.456-6.007 5.456zM10.052 63.456c-3.318 0-6.008-2.443-6.008-5.456 0-3.013 2.69-5.456 6.008-5.456h24.944c3.318 0 6.008 2.443 6.008 5.456 0 3.013-2.69 5.456-6.008 5.456z"/></g>
        <g id="panel-receiver" stroke="#fff" stroke-width="2.1"><path d="M66 29.05 12 10" fill="none" stroke-linecap="round" stroke-linejoin="round"/><rect x="6.8" y="29.05" width="67.5" height="38.5" rx="5" ry="5" fill="#fff" fill-opacity=".35"/><g fill="#fff" stroke-linecap="round" stroke-linejoin="round" fill-opacity=".35"><rect x="12.3" y="34.05" width="28.5" height="9.5" rx="2" ry="2"/><circle cx="56.55" cy="48.55" r="13.5"/><g transform="translate(0 -.5)"><circle cx="17.05" cy="50.55" r="3"/><circle cx="26.3" cy="50.55" r="3"/><circle cx="35.55" cy="50.55" r="3"/><circle cx="17.05" cy="57.05" r="3"/><circle cx="26.3" cy="57.05" r="3"/><circle cx="35.55" cy="57.05" r="3"/></g></g></g>
        <g id="panel-map" stroke="#fff" stroke-linecap="round" stroke-linejoin="round" stroke-width="2.1"><g stroke-opacity=".989"><path d="m30 11-19 8v50l19-5 19 5 20-5V11l-10.844 4.879a11.93 11.93 0 0 1 2.394 7.172c0 2.111-.55 4.09-1.507 5.814h.004L49 47 38.279 29.256h.013a11.922 11.922 0 0 1-1.742-6.205c0-2.905 1.034-5.568 2.752-7.644z" fill="#fff" fill-opacity=".35"/><g fill="none"><path d="M30 11v53M49 47v22M11 59l19-25 19 18 20-6"/></g></g><circle cx="48.55" cy="23.05" r="6.5" fill="none" stroke-opacity=".989"/><path d="M48.551 11.051c-6.627 0-12 5.373-12 12 0 2.274.643 4.393 1.742 6.205h-.013L49 47l10.048-18.135h-.004a11.935 11.935 0 0 0 1.507-5.814c0-6.628-5.372-12-12-12z" fill="#fff" fill-opacity=".2"/></g>
        <g id="panel-settings" stroke="#fff" stroke-linecap="round" stroke-linejoin="round" stroke-width="2.6"><path d="m39.855 10-1 .021c-1.041.04-2.078.134-3.11.282-.546.078-.853.587-.78 1.135a7.876 7.876 0 0 1-.022 1.841 6.504 6.504 0 0 1-5.428 5.428 7.889 7.889 0 0 1-1.992 0 6.501 6.501 0 0 1-4.156-2.463c-.336-.437-.916-.581-1.358-.25a29.998 29.998 0 0 0-6.017 6.016c-.331.442-.188 1.02.25 1.355a6.505 6.505 0 0 1 2.465 4.158 7.885 7.885 0 0 1 0 1.993 6.504 6.504 0 0 1-5.428 5.427 7.862 7.862 0 0 1-1.992-.002c-.461-.072-.904.256-.983.803a30.012 30.012 0 0 0-.002 8.51c.079.547.588.853 1.135.781a7.876 7.876 0 0 1 1.842.022 6.504 6.504 0 0 1 5.428 5.427 7.889 7.889 0 0 1 0 1.992 6.501 6.501 0 0 1-2.463 4.157c-.438.336-.581.915-.25 1.357a29.998 29.998 0 0 0 6.015 6.018c.442.33 1.02.187 1.356-.25a6.505 6.505 0 0 1 4.158-2.465 7.885 7.885 0 0 1 1.992 0 6.504 6.504 0 0 1 5.428 5.428 7.862 7.862 0 0 1-.002 1.992c-.072.46.256.904.803.982a30.012 30.012 0 0 0 8.51.002c.546-.078.853-.59.78-1.136a7.859 7.859 0 0 1 .022-1.84 6.504 6.504 0 0 1 5.428-5.428 7.889 7.889 0 0 1 1.992 0 6.501 6.501 0 0 1 4.156 2.463c.336.437.916.581 1.358.25a29.998 29.998 0 0 0 6.017-6.016c.331-.442.188-1.02-.25-1.355a6.505 6.505 0 0 1-2.465-4.158 7.885 7.885 0 0 1 0-1.993 6.504 6.504 0 0 1 5.428-5.427 7.862 7.862 0 0 1 1.992.002c.461.072.904-.258.983-.805a29.977 29.977 0 0 0 .002-8.508c-.079-.546-.59-.853-1.137-.781a7.859 7.859 0 0 1-1.84-.022 6.504 6.504 0 0 1-5.427-5.427 7.889 7.889 0 0 1 0-1.992 6.501 6.501 0 0 1 2.462-4.157c.438-.336.582-.915.25-1.357a29.998 29.998 0 0 0-6.015-6.018c-.442-.33-1.02-.187-1.356.25a6.505 6.505 0 0 1-4.158 2.465 7.885 7.885 0 0 1-1.992 0 6.504 6.504 0 0 1-5.428-5.428 7.862 7.862 0 0 1 .002-1.992c.072-.46-.256-.904-.803-.982a30.002 30.002 0 0 0-4.4-.305zM40 26.5A13.5 13.5 0 0 1 53.5 40 13.5 13.5 0 0 1 40 53.5 13.5 13.5 0 0 1 26.5 40 13.5 13.5 0 0 1 40 26.5z" fill="#fff" fill-opacity=".35"/><circle cx="40" cy="40" r="13.5" fill="#fff" fill-opacity=".2"/><circle cx="40" cy="40" r="8" fill="none"/></g>
        <g id="zoom-in" stroke="#fff"><circle cx="31.75" cy="32" r="27.5" fill="none" stroke-linecap="round" stroke-linejoin="round" stroke-width="8"/><path d="m57.147 47.242 20.644 20.645a4 4 90 0 1 0 5.657l-3.748 3.748a4 4 180 0 1-5.656 0L47.743 56.647" fill="#fff" stroke-width="2.1"/><path d="M31.75 18.5v27M18.25 32h27" fill="none" stroke-linecap="round" stroke-width="10"/></g>
        <g id="zoom-out" stroke="#fff"><circle cx="31.75" cy="32" r="27.5" fill="none" stroke-linecap="round" stroke-linejoin="round" stroke-width="8"/><path d="m57.147 47.242 20.644 20.645a4 4 90 0 1 0 5.657l-3.748 3.748a4 4 180 0 1-5.656 0L47.743 56.647" fill="#fff" stroke-width="2.1"/><path d="M18.25 32h27" fill="none" stroke-linecap="round" stroke-width="10"/></g>
        <g id="zoom-out-total" stroke="#fff"><circle cx="44.001" cy="51.307" r="16.326" fill="none" stroke-linecap="round" stroke-linejoin="round" stroke-width="4.75"/><path d="M59.079 60.356 71.6 72.877a2 2 90 0 1 0 2.829l-2.755 2.754a2 2 180 0 1-2.828 0L53.496 65.94" fill="#fff" stroke-width="1.247"/><path d="m20.893 1.244-16.199 16.9 16.199 16.9V21.698H59.5v13.346l16.199-16.9L59.5 1.244V14.7H20.893z" fill="#fff"/></g>
        <g id="zoom-in-total" stroke="#fff"><circle cx="44.701" cy="51.307" r="16.326" fill="none" stroke-linecap="round" stroke-linejoin="round" stroke-width="4.75"/><path d="M59.779 60.356 72.3 72.877a2 2 90 0 1 0 2.829l-2.755 2.754a2 2-180 0 1-2.828 0L54.196 65.94" fill="#fff" stroke-width="1.247"/><path d="M4.8 1.244v33.801L17.595 21.7H62.4l12.793 13.346v-33.8L62.296 14.698H17.698z" fill="#fff"/></g>
        <g id="speaker" stroke="#fff"><path d="M33.5 7.15 16.74 25.201H2.65v31.7h16.041L33.5 72.848z" fill="#fff" stroke-width="2.1"/><g fill="none"><path d="M46.336 16.041A20 30 0 0 1 54.3 40a20 30 0 0 1-7.964 23.959" stroke-width="3"/><path d="M52.716 9.652A30.6 38 0 0 1 64.9 40a30.6 38 0 0 1-12.184 30.348" stroke-width="4.2"/><path d="M59.035 2.065A41.1 47.5 0 0 1 75.4 40a41.1 47.5 0 0 1-16.365 37.935" stroke-width="5.4"/></g></g>
        <g id="speaker-muted"><path d="M33.5 7.15 16.74 25.201H2.65v31.7h16.041L33.5 72.848z" fill="#fff" stroke="#fff" stroke-width="2.1"/></g>
        <g id="waterfall-auto"><path d="M33.512 72.05s3.393-64.129 8.24-64.093c4.48.034 4.392 28.286 9.98 28.198 4.775-.074 5.279-13.721 6.33-17.88 1.013-4.004 2.915-5.172 5.321-4.894 2.993.346 8.205 5.925 10.588 13.761 4.16 13.677 5.53 44.907 5.53 44.907z" fill="#ccc" stroke="#ccc"/><path d="M29.3 68.8 18.4 54 7.5 68.8zM7.5 11.2 18.4 26l10.9-14.8zM18.4 26v28" fill="#fff" stroke="#fff" stroke-width="7.5"/></g>
        <g id="waterfall-default"><path d="M36.356 75.295s3.187-34.502 7.74-34.482c4.207.018 4.125 15.218 9.374 15.171 4.485-.04 4.958-7.382 5.945-9.62.951-2.154 2.738-2.782 4.998-2.632 2.812.186 7.707 3.187 9.945 7.403 3.906 7.358 5.193 24.16 5.193 24.16z" fill="#ccc" stroke="#ccc" stroke-width=".711"/><path d="M18.4 25.424v29.075m-10.9 0L18.4 69.3l10.9-14.801zm10.9-43.875L7.5 25.425h21.801z" fill="#fff" stroke="#fff" stroke-width="7.5"/></g>
        <g id="squelch" fill="#fff" stroke-width=".767"><path d="M33.333 24.7c-.058-14.132-5.913-21.9-16.58-21.9-10.145 0-16 7.673-16 20.963 0 10.575 3.305 15.722 11.884 18.343l5.913 1.872c5.797 1.778 7.942 4.399 7.942 9.92 0 5.71-3.246 9.172-8.521 9.172-5.913 0-9.218-4.024-9.508-11.324H0C.521 66.345 6.724 74.3 17.506 74.3c10.899 0 17.333-8.142 17.333-22.087 0-10.762-3.362-16.378-11.188-18.81l-6.609-2.06c-6.203-1.965-8-3.93-8-8.89 0-5.148 2.782-8.423 7.304-8.423 5.507 0 8.58 3.743 8.87 10.669zM75.362 62.508C78.202 56.893 80 47.534 80 38.363c0-10.014-2.203-19.653-5.913-26.11C70.435 5.887 65.681 2.8 59.653 2.8S48.87 5.888 45.218 12.252C41.45 18.71 39.305 28.35 39.305 38.55s2.203 19.84 5.913 26.298c3.652 6.364 8.406 9.452 14.435 9.452 4.405 0 7.594-1.404 10.956-4.68l4.986 7.581L80 69.621zM64.638 46.13l-4.406 7.58 4.464 6.833c-1.391 1.123-3.246 1.778-5.101 1.778C52.638 62.321 48 52.869 48 38.549c0-14.412 4.58-23.771 11.652-23.771s11.652 9.358 11.652 23.864c0 5.615-.638 10.67-1.913 14.787z"/></g>
        <g id="trashcan"><path d="M56.667 13.333V6.666A6.67 6.67 0 0 0 50 0H30a6.67 6.67 0 0 0-6.666 6.666v6.667H6.667V20h6.666v53.333A6.67 6.67 0 0 0 20 79.999h40a6.67 6.67 0 0 0 6.667-6.666V20h6.666v-6.667zM30 6.666h20v6.667H30zm30 66.667H20V20h40zM36.667 26.666H30v40h6.667zm13.333 0h-6.667v40H50z" fill="#fff"/></g>
        <g id="edit"><path d="m52.5 7.5-45 45v20h20l45-45zm12.93 20-4.697 4.697-12.93-12.93L52.5 14.57zM15.302 51.768l4.06-4.06c1.533 1.125 3.575 2.002 5.81 2.002 2.148 0 4.453-.8 6.595-2.942l10-10c2.52-2.52 4.622-7.728.968-12.43l1.535-1.535 12.93 12.93L28.23 64.698zm22.93-18.535-10 10c-2.062 2.058-4.007 1.595-5.27.875L39.14 27.93c1.465 2.485-.27 4.643-.907 5.303zM12.5 56.035 23.965 67.5H12.5z" fill="#fff"/></g>
        <g id="bookmark"><path d="M62.5 0h-45A7.5 7.5 0 0 0 10 7.5V80l30-17.5L70 80V7.5A7.5 7.5 0 0 0 62.5 0zm0 66.942L40 53.817 17.5 66.942V8.437a.938.938 0 0 1 .938-.938h43.124c.518 0 .938.42.938.937z" fill="#fff"/></g>
        <g id="rx-details-arrow-down"><path d="M5 0C2.5 0 0 2.5 0 5v7h43V5c0-2.5-2.5-5-5-5zm8 4h17l-8.5 6.5z" fill="#999" fill-opacity=".196"/><path d="M13 4h17l-8.5 6.5z" fill="#848484" fill-opacity=".592"/></g>
        <g id="rx-details-arrow-up"><path d="M5 0C2.5 0 0 2.5 0 5v7h43V5c0-2.5-2.5-5-5-5zm16.5 3L30 9.5H13z" fill="#999" fill-opacity=".196"/><path d="M30 9.5H13L21.5 3z" fill="#848484" fill-opacity=".592"/></g>
    </defs>
</svg>