<svg width="80" height="80" xmlns="http://www.w3.org/2000/svg">
    <defs>
        <g id="openwebrx-panel-log" stroke="#fff"><g fill="none" stroke-linecap="round" stroke-width="3.5"><path d="M21 57h39M21 48.5h39M21 40h34M21 31.5h39M21 23h39"/></g><g fill="#fff" stroke-linejoin="round" stroke-width="2.1"><path d="M13.5 63.5c0 2.5 2.5 5 5 5h45c2.5 0 5-2.5 5-5v-46c0-2.5-2.5-5-5-5H25l-11.5 16z" fill-opacity=".35" style="mix-blend-mode:normal"/><path d="M25 12.5s-1.323 7.847 4 15c-9.294-1.268-15.5 1-15.5 1"/></g></g>
        <g id="openwebrx-panel-status" fill="#fff" stroke="#fff" stroke-linejoin="round" stroke-width="2.1"><g fill-opacity=".35"><path d="M9.683 26.483c-3.13 0-5.666-2.455-5.666-5.483 0-3.029 2.536-5.484 5.666-5.484h48.634c3.13 0 5.666 2.455 5.666 5.484 0 3.028-2.537 5.483-5.666 5.483zM19.113 44.913c-3.13 0-5.666-2.455-5.666-5.483s2.537-5.484 5.666-5.484h48.634c3.13 0 5.666 2.455 5.666 5.484s-2.537 5.483-5.666 5.483zM9.683 63.483c-3.13 0-5.666-2.455-5.666-5.483s2.536-5.484 5.666-5.484h48.634c3.13 0 5.666 2.455 5.666 5.484s-2.537 5.483-5.666 5.483z"/></g><path d="M10.06 26.456c-3.322 0-6.016-2.443-6.016-5.456 0-3.013 2.694-5.456 6.016-5.456h5.932c3.322 0 6.016 2.443 6.016 5.456 0 3.013-2.694 5.456-6.016 5.456zM19.48 44.886c-3.317 0-6.007-2.443-6.007-5.456 0-3.013 2.69-5.456 6.007-5.456h32.516c3.317 0 6.007 2.443 6.007 5.456 0 3.014-2.69 5.456-6.007 5.456zM10.052 63.456c-3.318 0-6.008-2.443-6.008-5.456 0-3.013 2.69-5.456 6.008-5.456h24.944c3.318 0 6.008 2.443 6.008 5.456 0 3.013-2.69 5.456-6.008 5.456z"/></g>
    </defs>
</svg>