<svg width="1000" height="1000" xmlns="http://www.w3.org/2000/svg"><defs><filter style="color-interpolation-filters:sRGB" id="a" x="-.216" y="-.262" width="1.432" height="1.513"><feMorphology operator="dilate" radius="50" result="result1"/><feFlood flood-opacity="1" flood-color="#FFF" result="flood"/><feComposite in="flood" in2="result1" operator="in" result="composite1"/><feGaussianBlur stdDeviation="40" result="result2"/><feComposite in2="result2" in="SourceGraphic"/></filter></defs><g style="display:inline"><g style="display:inline;stroke:#000;stroke-opacity:1;filter:url(#a)" transform="matrix(1.026 0 0 .99685 -5.2 .992)"><ellipse cx="492.399" cy="351.179" rx="48.666" ry="50.279" style="display:inline;fill:#000;fill-opacity:1;stroke:none;stroke-width:24.733;stroke-opacity:1"/><path style="fill:none;stroke:#000;stroke-width:49.4405;stroke-linecap:butt;stroke-miterlimit:10;stroke-dasharray:none;stroke-opacity:1" d="M492.399 351.179v392.424"/><path d="M597.42 444.194c24.967-22.877 40.978-55.81 40.978-93.016s-16.011-70.139-40.977-93.015M684.874 521.624c46.014-41.48 75.19-102.393 75.19-170.446 0-68.052-29.176-128.965-75.19-170.445M387.376 444.194c-24.966-22.877-40.977-55.81-40.977-93.016s16.011-70.139 40.977-93.015M299.923 521.624c-46.014-41.48-75.19-102.393-75.19-170.446 0-68.052 29.176-128.965 75.19-170.445" style="fill:none;stroke:#000;stroke-width:49.4405;stroke-linecap:round;stroke-miterlimit:10;stroke-dasharray:none;stroke-opacity:1"/><path style="fill:none;stroke:#000;stroke-width:39.5524;stroke-linecap:butt;stroke-linejoin:miter;stroke-miterlimit:4;stroke-dasharray:none;stroke-opacity:1" d="M199.76 743.603h585.277"/><g style="fill:#09c;fill-opacity:1;stroke:#000;stroke-width:34.6084;stroke-miterlimit:4;stroke-dasharray:none;stroke-opacity:1"><ellipse style="display:inline;fill:#09c;fill-opacity:1;stroke:#000;stroke-width:34.6084;stroke-miterlimit:4;stroke-dasharray:none;stroke-opacity:1" cx="199.76" cy="743.603" rx="85.77" ry="88.278"/><ellipse style="display:inline;fill:#09c;fill-opacity:1;stroke:#000;stroke-width:34.6084;stroke-miterlimit:4;stroke-dasharray:none;stroke-opacity:1" cx="492.399" cy="743.603" rx="85.77" ry="88.278"/><ellipse style="display:inline;fill:#09c;fill-opacity:1;stroke:#000;stroke-width:34.6084;stroke-miterlimit:4;stroke-dasharray:none;stroke-opacity:1" cx="785.037" cy="743.603" rx="85.77" ry="88.278"/></g></g></g></svg>