<?xml version="1.0" encoding="UTF-8" standalone="no"?>
<svg
   xmlns:dc="http://purl.org/dc/elements/1.1/"
   xmlns:cc="http://creativecommons.org/ns#"
   xmlns:rdf="http://www.w3.org/1999/02/22-rdf-syntax-ns#"
   xmlns:svg="http://www.w3.org/2000/svg"
   xmlns="http://www.w3.org/2000/svg"
   xmlns:sodipodi="http://sodipodi.sourceforge.net/DTD/sodipodi-0.dtd"
   xmlns:inkscape="http://www.inkscape.org/namespaces/inkscape"
   version="1.1"
   id="DESIGNS"
   x="0px"
   y="0px"
   width="80"
   height="80"
   viewBox="0 0 80 80"
   xml:space="preserve"
   sodipodi:docname="openwebrx-edit.svg"
   inkscape:version="1.0.2 (e86c870879, 2021-01-15, custom)"><defs
     id="defs13" /><sodipodi:namedview
     pagecolor="#000000"
     bordercolor="#666666"
     borderopacity="1"
     objecttolerance="10"
     gridtolerance="10"
     guidetolerance="10"
     inkscape:pageopacity="0"
     inkscape:pageshadow="2"
     inkscape:window-width="2560"
     inkscape:window-height="1381"
     id="namedview11"
     showgrid="false"
     inkscape:pagecheckerboard="true"
     inkscape:zoom="8.015625"
     inkscape:cx="50.931774"
     inkscape:cy="30.97076"
     inkscape:window-x="0"
     inkscape:window-y="348"
     inkscape:window-maximized="1"
     inkscape:current-layer="DESIGNS" /><title
     property="dc:title"
     id="title2">to edit</title><path
     class="linesandangles_een"
     d="m 52.5,7.5 -45,45 v 20 h 20 l 45,-45 z m 12.93,20 -4.6975,4.6975 -12.93,-12.93 L 52.5,14.57 Z m -50.1275,24.2675 4.06,-4.06 c 1.5325,1.125 3.575,2.0025 5.81,2.0025 2.1475,0 4.4525,-0.8 6.595,-2.9425 l 10,-10 c 2.52,-2.52 4.6225,-7.7275 0.9675,-12.43 l 1.535,-1.535 12.93,12.93 -28.9675,28.965 z m 22.93,-18.535 -10,10 c -2.0625,2.0575 -4.0075,1.595 -5.27,0.875 L 39.14,27.93 c 1.465,2.485 -0.27,4.6425 -0.9075,5.3025 z M 12.5,56.035 23.965,67.5 H 12.5 Z"
     style="fill:#ffffff;fill-opacity:1;stroke-width:2.5"
     id="path6" /><metadata
     id="metadata8"><work
       rdf:about=""><format>image/svg+xml</format><type
         rdf:resource="http://purl.org/dc/dcmitype/StillImage" /><license
         rdf:resource="http://creativecommons.org/licenses/by/4.0/" /><attributionname>Shannon E Thomas</attributionname><attributionurl>http://www.toicon.com/icons/lines-and-angles_edit</attributionurl></work><rdf:RDF><cc:Work
         rdf:about=""><dc:format>image/svg+xml</dc:format><dc:type
           rdf:resource="http://purl.org/dc/dcmitype/StillImage" /><dc:title>to edit</dc:title></cc:Work></rdf:RDF></metadata></svg>
