<?xml version="1.0" encoding="UTF-8" standalone="no"?>
<svg
   xmlns:dc="http://purl.org/dc/elements/1.1/"
   xmlns:cc="http://creativecommons.org/ns#"
   xmlns:rdf="http://www.w3.org/1999/02/22-rdf-syntax-ns#"
   xmlns:svg="http://www.w3.org/2000/svg"
   xmlns="http://www.w3.org/2000/svg"
   xmlns:sodipodi="http://sodipodi.sourceforge.net/DTD/sodipodi-0.dtd"
   xmlns:inkscape="http://www.inkscape.org/namespaces/inkscape"
   version="1.1"
   id="Capa_1"
   x="0px"
   y="0px"
   width="80"
   height="80"
   viewBox="0 0 80 80"
   sodipodi:docname="openwebrx-trashcan.svg"
   inkscape:version="1.0.2 (e86c870879, 2021-01-15, custom)">
  <metadata
     id="metadata41">
    <rdf:RDF>
      <cc:Work
         rdf:about="">
        <dc:format>image/svg+xml</dc:format>
        <dc:type
           rdf:resource="http://purl.org/dc/dcmitype/StillImage" />
        <dc:title></dc:title>
      </cc:Work>
    </rdf:RDF>
  </metadata>
  <defs
     id="defs39" />
  <sodipodi:namedview
     pagecolor="#000000"
     bordercolor="#666666"
     borderopacity="1"
     objecttolerance="10"
     gridtolerance="10"
     guidetolerance="10"
     inkscape:pageopacity="0"
     inkscape:pageshadow="2"
     inkscape:window-width="2560"
     inkscape:window-height="1381"
     id="namedview37"
     showgrid="false"
     inkscape:pagecheckerboard="true"
     inkscape:zoom="10.6875"
     inkscape:cx="12"
     inkscape:cy="40.845312"
     inkscape:window-x="0"
     inkscape:window-y="348"
     inkscape:window-maximized="1"
     inkscape:current-layer="g4" />
  <g
     transform="translate(-20,-20)"
     id="g4"
     style="display:inline;fill:#ffffff;fill-opacity:1">
    <path
       d="M 76.666667,33.333333 V 26.666667 C 76.666667,22.986667 73.68,20 70,20 H 50 c -3.68,0 -6.666666,2.986667 -6.666666,6.666667 v 6.666666 H 26.666667 V 40 h 6.666667 V 93.333333 C 33.333334,97.013333 36.32,100 40,100 h 40 c 3.68,0 6.666667,-2.986667 6.666667,-6.666667 V 40 h 6.666667 V 33.333333 Z M 50,26.666667 h 20 v 6.666666 H 50 Z M 80,93.333333 H 40 V 40 H 80 Z M 56.666667,46.666667 H 50 v 40 h 6.666667 z m 13.333333,0 h -6.666666 v 40 H 70 Z"
       id="path2"
       style="display:inline;fill:#ffffff;fill-opacity:1;stroke-width:3.33333" />
  </g>
</svg>
